<?xml version="1.0" standalone="no"?>
<!DOCTYPE svg PUBLIC "-//W3C//DTD SVG 20010904//EN"
 "http://www.w3.org/TR/2001/REC-SVG-20010904/DTD/svg10.dtd">
<svg version="1.0" xmlns="http://www.w3.org/2000/svg"
 width="453.000000pt" height="488.000000pt" viewBox="0 0 453.000000 488.000000"
 preserveAspectRatio="xMidYMid meet">

<g transform="translate(0.000000,488.000000) scale(0.100000,-0.100000)"
fill="#000000" stroke="none">
<path d="M2023 4213 l-253 -147 0 -301 0 -301 238 -136 c130 -75 249 -142 264
-149 26 -11 42 -4 288 137 l260 149 0 300 0 300 -258 148 c-141 81 -264 147
-272 147 -8 0 -129 -66 -267 -147z"/>
<path d="M607 3458 c40 -69 375 -617 467 -765 l58 -92 66 41 c183 114 410 268
416 283 5 15 17 181 31 452 5 111 5 113 -17 117 -23 5 -816 26 -975 26 l-82 0
36 -62z"/>
<path d="M3470 3498 c-228 -4 -433 -10 -455 -13 l-40 -5 8 -173 c4 -94 11
-226 15 -292 l7 -119 160 -104 c266 -172 326 -205 340 -190 11 12 507 826 533
874 10 19 9 23 -11 28 -12 3 -49 5 -82 4 -33 -1 -247 -5 -475 -10z"/>
<path d="M2205 3007 c-44 -23 -157 -87 -251 -141 l-171 -100 -6 -215 c-4 -119
-7 -256 -7 -306 l1 -90 258 -147 c142 -82 261 -148 265 -148 6 0 508 284 525
296 2 2 0 140 -4 306 l-7 304 -37 20 c-20 11 -131 75 -247 142 -117 67 -218
122 -225 122 -8 0 -50 -20 -94 -43z"/>
<path d="M1045 2341 c-60 -32 -175 -96 -255 -142 l-145 -84 -3 -305 -2 -305
259 -148 259 -148 114 63 c62 35 179 102 260 148 l148 85 -3 305 -2 305 -249
143 c-137 78 -254 142 -260 142 -6 0 -60 -27 -121 -59z"/>
<path d="M3329 2347 c-53 -28 -167 -92 -253 -142 l-156 -90 0 -305 0 -305 241
-140 c133 -77 250 -144 260 -149 15 -7 74 23 279 140 l260 149 -3 305 -2 305
-250 143 c-137 78 -256 142 -265 142 -8 0 -58 -24 -111 -53z"/>
<path d="M2225 1673 c-38 -19 -152 -78 -253 -131 -155 -81 -183 -99 -178 -115
9 -37 499 -926 507 -921 14 8 509 916 509 933 0 6 -116 68 -257 140 l-258 129
-70 -35z"/>
</g>
</svg>
