<?xml version="1.0"?>
    <svg xmlns="http://www.w3.org/2000/svg" width="519.6152422706631" height="600">
      <polygon points="0,150 519.6152422706631,150 259.80762113533155,600" fill="black"/>
      <polygon points="173.2050807568877,50 259.80762113533155,0 346.4101615137754,50 346.4101615137754,150 173.2050807568877,200" fill="black"/>
      <polygon points="0,350 86.60254037844385,300 173.2050807568877,350 173.2050807568877,450 86.60254037844385,500 0,450" fill="black"/>
      <polygon points="519.6152422706631,350 433.01270189221925,300 346.4101615137754,350 346.4101615137754,450 433.01270189221925,500 519.6152422706631,450" fill="black"/>
      <polygon points="173.2050807568877,150 259.80762113533155,200 346.4101615137754,150 346.4101615137754,250 433.01270189221925,300 346.4101615137754,350 346.4101615137754,450 259.80762113533155,400 173.2050807568877,450 173.2050807568877,350 86.60254037844385,300 173.2050807568877,250" fill="white"/>
      <polygon points="173.2050807568877,250 259.80762113533155,200 346.4101615137754,250 346.4101615137754,350 259.80762113533155,400 173.2050807568877,350 173.2050807568877,250" fill="black"/>
    </svg>
